<svg width="61" height="59" viewBox="0 0 61 59" fill="none" xmlns="http://www.w3.org/2000/svg">
<path d="M29.6022 59.0001C45.7714 59.0001 58.8791 46.2186 58.8791 30.4518C58.8791 14.685 45.7714 1.90344 29.6022 1.90344C13.4329 1.90344 0.325195 14.685 0.325195 30.4518C0.325195 46.2186 13.4329 59.0001 29.6022 59.0001Z" fill="#B4DFFB"/>
<path fill-rule="evenodd" clip-rule="evenodd" d="M32.8043 21.3548C31.8011 21.0831 30.7235 20.9354 29.6018 20.9354C28.3554 20.9354 27.1636 21.1177 26.0678 21.4499C25.5004 20.2888 23.9483 17.3492 22.2538 16.1774C22.2538 16.1774 20.4782 20.7222 20.8771 25.1338C20.2153 26.1607 19.8428 27.3206 19.8428 28.5483C19.8428 32.0521 22.8771 35.0031 27.0077 35.8893C22.8771 38.1049 19.8428 45.4823 19.8428 54.2418C19.8428 55.3253 19.8892 56.3877 19.9784 57.4218C22.9924 58.4443 26.2305 58.9999 29.6018 58.9999C32.973 58.9999 36.2111 58.4443 39.2251 57.4218C39.3143 56.3877 39.3608 55.3253 39.3608 54.2418C39.3608 45.4823 36.3264 38.1049 32.1959 35.8893C36.3264 35.0031 39.3608 32.0521 39.3608 28.5483C39.3608 27.1224 38.8582 25.788 37.9837 24.6471C38.2191 20.3943 36.5716 16.1774 36.5716 16.1774C34.9216 17.3184 33.4066 20.1356 32.8043 21.3548Z" fill="#0A3586"/>
<path d="M51.0725 19.0322C56.4622 19.0322 60.8315 14.7717 60.8315 9.51611C60.8315 4.26051 56.4622 0 51.0725 0C45.6827 0 41.3135 4.26051 41.3135 9.51611C41.3135 14.7717 45.6827 19.0322 51.0725 19.0322Z" fill="#5EA7FF"/>
<path d="M55.6188 4.80923L50.9276 14.6289L46.4414 11.1241" stroke="white" stroke-width="3.45305" stroke-linecap="square"/>
</svg>
